<?xml version="1.0" encoding="UTF-8"?><svg id="Layer_2" xmlns="http://www.w3.org/2000/svg" viewBox="0 0 345.4 57.33"><defs><style>.cls-1{fill:#fff;}</style></defs><g id="logo"><path class="cls-1" d="M137.23,30.1c-.53,0-1.06.64-1.06.64,0,0-10.51,12.64-22.51,12.64-4.35,0-7.22-2.65-7.22-6.69,0-.64,0-1.38.11-2.02,8.92-2.13,23.47-8.07,23.47-14.34,0-2.66-2.02-4.57-5.31-4.57-8.07,0-21.24,10.72-21.24,20.6,0,6.05,4.67,9.45,10.19,9.45,12.32,0,24-13.7,24-13.7,0,0,.53-.64.53-1.06,0-.53-.32-.95-.96-.95ZM125.13,18.1c1.49,0,2.34.96,2.34,1.91,0,4.88-12.11,10.3-20.18,12.21,2.87-7.22,11.68-14.13,17.84-14.13Z"/><path class="cls-1" d="M7,42.52c-.45-1.09-.67-2.87-.67-5.34V13.78l-.19-.19L.19,15.25l-.19.25c1.19.34,2.03,1.07,2.53,2.17.49,1.11.73,2.86.73,5.24v14.26c0,2.47-.22,4.25-.67,5.34s-1.23,1.78-2.33,2.08l.19.26h8.7l.19-.26c-1.11-.3-1.89-.99-2.33-2.08Z"/><path class="cls-1" d="M4.47,12.47h0c0-3.44,1.93-6.24,4.32-6.24h0c-2.39,0-4.32-2.79-4.32-6.24h0C4.47,3.44,2.53,6.24.15,6.24H.15c2.39,0,4.32,2.79,4.32,6.24Z"/><path class="cls-1" d="M33.47,42.52c-.45-1.09-.67-2.87-.67-5.34v-14.96c0-1.7-.34-3.21-1.02-4.51-.68-1.3-1.61-2.32-2.78-3.07-1.17-.75-2.53-1.12-4.06-1.12-1.45,0-2.87.36-4.25,1.09-1.39.73-2.63,1.77-3.74,3.13v-3.97l-.19-.19-5.88,1.66-.19.25c1.19.34,2.04,1.07,2.53,2.17.49,1.11.74,2.86.74,5.24v14.26c0,2.47-.22,4.25-.67,5.34s-1.23,1.78-2.33,2.08l.19.26h8.7l.19-.26c-1.11-.3-1.89-.99-2.33-2.08s-.67-2.87-.67-5.34v-18.61c1.02-.85,2.12-1.5,3.29-1.95,1.17-.45,2.27-.67,3.29-.67,1.83,0,3.31.69,4.44,2.08,1.13,1.39,1.69,3.21,1.69,5.47v13.68c0,2.47-.22,4.25-.67,5.34s-1.23,1.78-2.33,2.08l.19.26h8.7l.19-.26c-1.11-.3-1.89-.99-2.33-2.08Z"/><path class="cls-1" d="M46.61,27.47c-1.92-1.11-3.37-2.32-4.35-3.65-.98-1.32-1.47-2.73-1.47-4.22s.45-2.72,1.34-3.68c.9-.96,2.07-1.44,3.52-1.44,1.62,0,3.03.6,4.22,1.79,1.19,1.19,2.3,2.98,3.33,5.37l.32-.13-1.02-7.03-1.85-.38c-.94-.21-1.81-.36-2.62-.45-.81-.08-1.51-.13-2.11-.13-2.39,0-4.32.7-5.79,2.11-1.47,1.41-2.21,3.18-2.21,5.31,0,1.19.26,2.35.77,3.45.51,1.11,1.28,2.16,2.3,3.17,1.02,1,2.28,1.95,3.77,2.85,1.58.9,2.85,1.79,3.8,2.69.96.9,1.66,1.8,2.11,2.72.45.92.67,1.91.67,2.97,0,1.71-.51,3.13-1.53,4.28-1.02,1.15-2.3,1.73-3.84,1.73-1.71,0-3.33-.74-4.86-2.21-1.53-1.47-2.73-3.4-3.58-5.79l-.32.13,1.02,7.29,2.49.7c1.11.3,2.12.52,3.04.67.92.15,1.72.22,2.4.22,2.34,0,4.29-.79,5.85-2.36,1.56-1.58,2.33-3.56,2.33-5.95,0-1.96-.62-3.73-1.85-5.31-1.24-1.58-3.2-3.15-5.88-4.73Z"/><path class="cls-1" d="M72.99,15.6c-1.51-1.38-3.25-2.08-5.21-2.08-1.32,0-2.57.35-3.74,1.05-1.17.7-2.18,1.72-3.04,3.04v-3.84l-.19-.19-5.95,1.66-.19.25c1.19.34,2.04,1.07,2.53,2.17.49,1.11.73,2.86.73,5.24v26.73c0,2.47-.22,4.25-.67,5.34-.45,1.09-1.23,1.78-2.33,2.08l.19.26h8.7l.19-.26c-1.11-.3-1.89-.99-2.33-2.08-.45-1.09-.67-2.87-.67-5.34v-6.07c2.17,1.49,4.22,2.24,6.14,2.24,2.09,0,3.94-.7,5.56-2.11,1.62-1.41,2.89-3.35,3.81-5.82.92-2.47,1.37-5.28,1.37-8.44s-.44-5.8-1.31-8.18c-.87-2.39-2.07-4.27-3.58-5.66ZM73.56,37.66c-.53,2.11-1.35,3.84-2.46,5.18-1.11,1.34-2.54,2.01-4.28,2.01s-3.05-.74-4.16-2.21c-1.11-1.47-1.66-3.29-1.66-5.47v-18.61c.85-.94,1.72-1.64,2.59-2.11.87-.47,1.74-.7,2.59-.7,1.79,0,3.29.75,4.51,2.24,1.22,1.49,2.13,3.4,2.75,5.72.62,2.32.93,4.74.93,7.26,0,2.35-.27,4.57-.8,6.68Z"/><path class="cls-1" d="M84.66,12.47c0-3.44,1.93-6.24,4.32-6.24h0c-2.39,0-4.32-2.79-4.32-6.24,0,3.44-1.93,6.24-4.32,6.24h0c2.39,0,4.32,2.79,4.32,6.24Z"/><path class="cls-1" d="M87.12,41.59c-.45-1.52-.67-4.01-.67-7.47V13.86l-.19-.27-5.95,2.33-.19.36c1.19.48,2.03,1.49,2.53,3.04.49,1.55.73,4,.73,7.34v7.48c0,3.46-.22,5.95-.67,7.47s-1.23,2.49-2.33,2.91l.19.36h8.7l.19-.36c-1.11-.41-1.89-1.38-2.33-2.91Z"/><path class="cls-1" d="M99.3,19.14c.98-.95,2.05-1.43,3.2-1.43.6,0,1.18.12,1.76.36.58.24,1.14.6,1.69,1.07l.13-.18.83-5c-1.45-.71-2.84-.85-4.16-.4-1.32.45-2.47,1.37-3.45,2.77-.98,1.4-1.68,3.2-2.11,5.4h-.06v-7.76l-.19-.27-5.95,2.32-.19.36c1.19.48,2.04,1.49,2.53,3.03.49,1.55.74,3.99.74,7.32v7.43c0,3.45-.22,5.93-.67,7.45-.45,1.52-1.23,2.48-2.33,2.9l.19.36h8.7l.19-.36c-1.11-.41-1.89-1.38-2.33-2.9-.45-1.52-.67-4-.67-7.45v-11.1c.54-1.71,1.26-3.02,2.17-3.91Z"/><path class="cls-1" d="M205.64,18.91c-.81-2-1.93-3.57-3.36-4.7-1.43-1.13-3.08-1.69-4.96-1.69-2.05,0-3.87.68-5.47,2.05-1.6,1.36-2.86,3.23-3.77,5.6-.92,2.37-1.38,5.11-1.38,8.22,0,2.01.22,3.85.6,5.56-.84,1.05-5.55,6.68-9.19,6.68-1.19,0-1.76-.57-1.76-1.79,0-3.29,6.08-8.01,6.08-11.52,0-1.86-1-2.86-2.38-2.86-3.64,0-14.92,10.44-19.43,16.09,0,0,2.13-5.15,3.45-7.08,7.96-7.08,22.5-19.81,22.5-25.89,0-1.93-1.19-3.5-3.2-3.5-6.33,0-13.72,12.09-19.74,25.25-2.33,5.13-5.1,11.73-5.47,13.2-.14.01-.28.05-.43.05-1.07,0-1.89-.42-2.46-1.25-.58-.83-.86-1.93-.86-3.29V14.31h6.01v-.83h-6.01V5.04l-.58.19c-.51,2.35-1.31,4.31-2.4,5.88-1.09,1.58-2.72,2.37-4.89,2.37v.83h4.8v24.17c0,2.3.53,3.93,1.6,4.89,1.61,1.44,3.79,1.73,5.73.79,1.29-.62,1.87-1.49,2.77-2.57,1.01-1.22,2.38-2.64,3.49-3.78.36-.37.72-.74,1.09-1.1.04-.04.07-.07.11-.11,1.23-1.21,2.49-2.4,3.77-3.56,1.21-1.08,2.44-2.14,3.7-3.15,1.05-.83,2.12-1.64,3.24-2.37.74-.47,1.53-.97,2.38-1.21.17-.05.34-.08.51-.08.5,0,.94.36.94,1.07,0,2.86-6.08,7.3-6.08,11.59,0,2.07,1.25,3.29,3.07,3.29,3.97,0,8.42-4.82,10.03-6.74.16.5.31,1.01.51,1.48,1,2.47,2.37,4.4,4.09,5.79,1.73,1.38,3.68,2.08,5.85,2.08,1.36,0,2.58-.28,3.65-.83,1.06-.55,1.99-1.35,2.78-2.4.79-1.04,1.4-2.29,1.82-3.74l-.38-.13c-.68,1.54-1.63,2.73-2.85,3.58-1.22.85-2.5,1.28-3.87,1.28-1.71,0-3.25-.67-4.64-2.01-1.39-1.34-2.48-3.22-3.29-5.63-.69-2.06-1.07-4.4-1.17-7h16.45c.08-.34.14-.68.16-1.02.02-.34.03-.68.03-1.02,0-2.64-.41-4.97-1.22-6.97ZM183.51,5.64c.94,0,1.57.79,1.57,1.72,0,5.65-13.98,17.95-20.43,23.75,6.2-13.66,13.72-25.46,18.86-25.46ZM203.21,26.46v.64h-13.03c0-.17-.02-.34-.02-.51,0-3.92.66-7.09,1.98-9.5,1.32-2.41,2.96-3.61,4.92-3.61s3.42,1.15,4.51,3.45c1.09,2.3,1.63,5.29,1.63,8.95v.58Z"/><path class="cls-1" d="M344.64,28.89c-.31,0-.69.72-.69.72,0,0-6.1,11.45-11.45,11.45-1.37,0-2.44-1.32-2.44-3.5,0-5.42,7.4-13.38,7.4-19.77,0-2.89-1.37-5.18-3.36-5.18-5.65,0-16.33,13.75-22.13,24.35,2.67-7.35,6.33-14.95,9.08-19.89.53-.96.76-1.32.76-1.81,0-.6-.61-1.45-1.07-1.45-1.14,0-7.17,13.14-10.07,20.98-1.6,4.34-2.52,7.23-2.52,8.2,0,1.09.53,1.81,1.07,1.81.46,0,.76-.36,1.3-1.45,8.01-14.83,18.24-27.85,23.12-27.85.92,0,1.6.96,1.6,2.29,0,5.18-7.48,13.14-7.48,20.13,0,3.5,1.6,5.91,4.04,5.91,6.26,0,13.2-12.66,13.2-12.66,0,0,.38-.72.38-1.21,0-.6-.31-1.08-.76-1.08Z"/><path class="cls-1" d="M258.59,42.18c-.45-1.09-.67-2.87-.67-5.34v-14.96c0-2.51-.75-4.59-2.24-6.23-1.49-1.64-3.37-2.46-5.63-2.46-1.58,0-3.05.38-4.41,1.15-1.36.77-2.6,1.79-3.71,3.07h-.12c-.31-.63-.68-1.22-1.13-1.76-1.39-1.64-3.21-2.46-5.47-2.46-1.45,0-2.81.36-4.09,1.09-1.28.73-2.47,1.77-3.58,3.13v-3.97l-.19-.19-5.88,1.66-.19.25c1.19.34,2.04,1.07,2.53,2.17.49,1.11.74,2.86.74,5.24v14.26c0,2.47-.22,4.25-.67,5.34-.45,1.09-1.23,1.78-2.33,2.08l.19.26h8.7l.19-.26c-1.11-.3-1.89-.99-2.33-2.08s-.67-2.87-.67-5.34v-18.61c2.13-1.75,4.22-2.62,6.27-2.62,1.83,0,3.26.69,4.28,2.08,1.02,1.39,1.53,3.21,1.53,5.47v13.68c0,2.47-.22,4.25-.67,5.34-.45,1.09-1.23,1.78-2.33,2.08l.19.26h8.7l.19-.26c-1.11-.3-1.89-.99-2.33-2.08-.45-1.09-.67-2.87-.67-5.34v-14.96c0-1.35-.21-2.57-.61-3.67,1.1-.84,2.18-1.48,3.26-1.93,1.09-.45,2.18-.67,3.29-.67,1.83,0,3.31.69,4.44,2.08,1.13,1.39,1.69,3.21,1.69,5.47v13.68c0,2.47-.22,4.25-.67,5.34s-1.23,1.78-2.33,2.08l.19.26h8.7l.19-.26c-1.11-.3-1.89-.99-2.33-2.08Z"/><path class="cls-1" d="M278.42,14.5c-1.64-1.32-3.57-1.98-5.79-1.98s-4.15.66-5.79,1.98c-1.64,1.32-2.91,3.2-3.8,5.63-.9,2.43-1.34,5.29-1.34,8.57s.45,6.07,1.34,8.5c.9,2.43,2.16,4.31,3.8,5.63,1.64,1.32,3.57,1.98,5.79,1.98s4.15-.66,5.79-1.98c1.64-1.32,2.91-3.19,3.81-5.6.9-2.41,1.34-5.25,1.34-8.54s-.45-6.14-1.34-8.57c-.9-2.43-2.16-4.31-3.81-5.63ZM279.02,36.94c-.55,2.22-1.34,3.92-2.37,5.12-1.02,1.19-2.24,1.79-3.64,1.79-1.58,0-2.93-.63-4.06-1.89-1.13-1.26-2-3.06-2.62-5.4-.62-2.34-.93-5.09-.93-8.25s.28-5.71.83-7.93c.55-2.22,1.35-3.92,2.4-5.11,1.04-1.19,2.29-1.79,3.74-1.79,1.53,0,2.86.63,3.96,1.89,1.11,1.26,1.97,3.05,2.59,5.37.62,2.32.93,5.08.93,8.28s-.28,5.71-.83,7.93Z"/><path class="cls-1" d="M307.03,20.13c-.9-2.43-2.16-4.31-3.81-5.63-1.64-1.32-3.57-1.98-5.79-1.98s-4.15.66-5.79,1.98c-1.64,1.32-2.91,3.2-3.8,5.63-.9,2.43-1.34,5.29-1.34,8.57s.45,6.07,1.34,8.5c.9,2.43,2.16,4.31,3.8,5.63,1.64,1.32,3.57,1.98,5.79,1.98s4.15-.66,5.79-1.98c1.64-1.32,2.91-3.19,3.81-5.6.9-2.41,1.34-5.25,1.34-8.54s-.45-6.14-1.34-8.57ZM303.83,36.94c-.55,2.22-1.34,3.92-2.37,5.12-1.02,1.19-2.24,1.79-3.64,1.79-1.58,0-2.93-.63-4.06-1.89-1.13-1.26-2-3.06-2.62-5.4-.62-2.34-.93-5.09-.93-8.25s.28-5.71.83-7.93c.55-2.22,1.35-3.92,2.4-5.11,1.04-1.19,2.29-1.79,3.74-1.79,1.53,0,2.86.63,3.96,1.89,1.11,1.26,1.97,3.05,2.59,5.37.62,2.32.93,5.08.93,8.28s-.28,5.71-.83,7.93Z"/></g></svg>